<?xml version="1.0" encoding="UTF-8"?>
<svg id="Layer_1" xmlns="http://www.w3.org/2000/svg" version="1.1" xmlns:xlink="http://www.w3.org/1999/xlink" viewBox="0 0 500 500">
  <!-- Generator: Adobe Illustrator 30.2.1, SVG Export Plug-In . SVG Version: 2.1.1 Build 1)  -->
  <defs>
    <style>
      .st0 {
        fill: url(#linear-gradient2);
      }

      .st1 {
        fill: url(#linear-gradient1);
      }

      .st2 {
        fill: url(#linear-gradient3);
      }

      .st3 {
        fill: url(#linear-gradient);
      }
    </style>
    <linearGradient id="linear-gradient" x1="177.16" y1="245.84" x2="75.98" y2="160.93" gradientUnits="userSpaceOnUse">
      <stop offset="0" stop-color="#23489f"/>
      <stop offset="1" stop-color="#04b4f0"/>
    </linearGradient>
    <linearGradient id="linear-gradient1" x1="219.13" y1="251.46" x2="156.3" y2="198.74" xlink:href="#linear-gradient"/>
    <linearGradient id="linear-gradient2" x1="391.98" y1="219.96" x2="351.09" y2="185.65" xlink:href="#linear-gradient"/>
    <linearGradient id="linear-gradient3" x1="348.16" y1="273.22" x2="223.45" y2="168.58" xlink:href="#linear-gradient"/>
  </defs>
  <path class="st3" d="M77.93,161.41h47.54s2.25.61,5.74,4.1,45.08,65.57,45.08,65.57l5.41,9.34-30.58,15.1h-12.39l-14.71-16.52-48.13-69.29s-5.36-8.3,2.03-8.3Z"/>
  <g id="Layer_2">
    <path class="st1" d="M123.39,237.97c.49-.44,3.77,4.59,10.97,8,2.52,1.19,12.02,5.26,22.45,1.94,7-2.23,11.06-6.73,16.65-12.9,3.33-3.69,6.05-7.71,11.48-15.74,2.33-3.44,4.29-6.52,7.87-11.35.59-.8,1.97-2.94,4.17-5.5,1.21-1.41,2.29-2.52,2.79-3.02,5.26-5.18,12.52-7.35,12.52-7.35,1.41-.42,8.52-2.43,17.29,0,7.44,2.07,19.02,8.15,19.1,15.61.03,2.62-1.39,3.47-7.48,12.34-4.45,6.47-3.54,5.79-7.87,12.18-7.96,11.73-12.01,17.7-19.1,24-2.72,2.42-7.28,6.41-14.32,9.94-7.11,3.56-13.28,4.89-16.26,5.42-3.24.57-7.58,1.31-13.29.77-1.14-.11-6.56-.67-13.42-3.48-1.98-.81-8.19-3.5-16.26-10.32-10.87-9.19-18-19.87-17.29-20.52Z"/>
  </g>
  <g id="Layer_4">
    <path class="st0" d="M321.71,232.42l48.39-69.42s1.29-1.55,3.87-1.55h45.94s10.84-1.94,2.84,9.03c-8,10.97-28.65,41.68-28.65,41.68l-19.61,28.65-7.74,7.35-17.68,6.32-22.58-4.14-9.55-14.44,4.77-3.48Z"/>
  </g>
  <g id="Layer_3">
    <path class="st2" d="M196.55,201.84c-.49-.44,5.59-8.29,11.87-14.97,1.86-1.97,2.9-2.96,3.61-3.61,1.33-1.22,4.92-4.39,10.45-7.61,4.04-2.35,9.57-5.52,17.55-7.1,2.29-.45,6.31-1.08,11.35-.9,6.49.23,11.59,1.67,14.58,2.71,6.09,2.11,10.08,4.84,13.94,7.48,2.45,1.68,7.94,5.63,13.81,12,6.53,7.08,10.11,13.49,11.87,16.52,9.03,15.53,13.85,22.41,18.13,27.27.82.93,2.8,3.24,5.74,5.89,3.95,3.55,7.31,6.57,12.52,8.39,4.77,1.66,8.84,1.53,11.48,1.42,2.45-.1,7.08-.34,12.13-2.71,6.08-2.85,9.04-7.05,9.42-6.71.44.4-3.54,6.11-9.16,11.87-3.04,3.11-7.24,7.37-13.94,11.48-8.16,5.02-15.38,6.98-17.94,7.61-4.37,1.08-9.64,2.34-16.52,1.61-1.22-.13-5.81-.67-12.52-3.41-9.05-3.7-15.96-8.94-20.9-13.55-5.57-5.19-10.34-12.36-19.87-26.71-5.66-8.52-7.82-12.31-13.29-19.23-8.24-10.42-12.16-12.98-14.58-14.32-2.77-1.54-10.01-5.43-19.23-4.26-6.43.82-11.25,3.79-13.03,4.9-4.82,3.03-7.17,6.21-7.48,5.94Z"/>
  </g>
</svg>