<?xml version="1.0" encoding="UTF-8"?>
<svg id="Layer_2" xmlns="http://www.w3.org/2000/svg" version="1.1" viewBox="0 0 800 800">
  <!-- Generator: Adobe Illustrator 30.1.0, SVG Export Plug-In . SVG Version: 2.1.1 Build 136)  -->
  <defs>
    <style>
      .st0 {
        fill: none;
        stroke: #9b9b9b;
        stroke-linecap: round;
        stroke-linejoin: round;
        stroke-width: 66.67px;
      }
    </style>
  </defs>
  <path class="st0" d="M306.5,306.5v-87.26c0-34.91,0-52.38,6.79-65.71,5.98-11.73,15.5-21.26,27.23-27.23,13.33-6.79,30.8-6.79,65.71-6.79h174.53c34.91,0,52.36,0,65.69,6.79,11.73,5.98,21.27,15.5,27.25,27.23,6.79,13.33,6.79,30.79,6.79,65.7v174.53c0,34.91,0,52.37-6.79,65.7-5.97,11.73-15.53,21.28-27.26,27.25-13.32,6.79-30.75,6.79-65.59,6.79h-87.36M306.5,306.5h-87.26c-34.91,0-52.38,0-65.71,6.79-11.73,5.98-21.26,15.5-27.23,27.23-6.79,13.33-6.79,30.8-6.79,65.71v174.53c0,34.91,0,52.36,6.79,65.69,5.98,11.73,15.5,21.27,27.23,27.25,13.32,6.79,30.77,6.79,65.61,6.79h174.74c34.84,0,52.26,0,65.58-6.79,11.73-5.97,21.27-15.53,27.25-27.26,6.79-13.32,6.79-30.75,6.79-65.59v-87.36M306.5,306.5h87.27c34.91,0,52.36,0,65.69,6.79,11.73,5.98,21.27,15.5,27.25,27.23,6.79,13.32,6.79,30.77,6.79,65.61v87.36"/>
</svg>