<?xml version="1.0" encoding="UTF-8"?>
<svg id="Layer_1" xmlns="http://www.w3.org/2000/svg" version="1.1" xmlns:xlink="http://www.w3.org/1999/xlink" viewBox="0 0 84 35">
  <!-- Generator: Adobe Illustrator 30.1.0, SVG Export Plug-In . SVG Version: 2.1.1 Build 136)  -->
  <defs>
    <style>
      .st0 {
        fill: url(#linear-gradient2);
      }

      .st1 {
        fill: url(#linear-gradient1);
      }

      .st2 {
        fill: url(#linear-gradient3);
      }

      .st3 {
        fill: #312f32;
        font-family: Bebas-Regular, Bebas;
        font-size: 12px;
      }

      .st4 {
        fill: url(#linear-gradient);
      }
    </style>
    <linearGradient id="linear-gradient" x1="13.15" y1="20.35" x2="2.58" y2="11.48" gradientUnits="userSpaceOnUse">
      <stop offset="0" stop-color="#254b9e"/>
      <stop offset="1" stop-color="#26b2e7"/>
    </linearGradient>
    <linearGradient id="linear-gradient1" x1="17.54" y1="20.94" x2="10.97" y2="15.43" xlink:href="#linear-gradient"/>
    <linearGradient id="linear-gradient2" x1="35.6" y1="17.65" x2="31.33" y2="14.06" xlink:href="#linear-gradient"/>
    <linearGradient id="linear-gradient3" x1="31.02" y1="23.22" x2="17.99" y2="12.28" xlink:href="#linear-gradient"/>
  </defs>
  <path class="st4" d="M2.78,11.53h4.97s.24.06.6.43,4.71,6.85,4.71,6.85l.57.98-3.2,1.58h-1.29l-1.54-1.73-5.03-7.24s-.56-.87.21-.87Z"/>
  <path class="st1" d="M7.53,19.53c.05-.05.39.48,1.15.84.26.12,1.26.55,2.35.2.73-.23,1.16-.7,1.74-1.35.35-.39.63-.81,1.2-1.65.24-.36.45-.68.82-1.19.06-.08.21-.31.44-.57.13-.15.24-.26.29-.32.55-.54,1.31-.77,1.31-.77.15-.04.89-.25,1.81,0,.78.22,1.99.85,2,1.63,0,.27-.14.36-.78,1.29-.46.68-.37.61-.82,1.27-.83,1.23-1.26,1.85-2,2.51-.28.25-.76.67-1.5,1.04-.74.37-1.39.51-1.7.57-.34.06-.79.14-1.39.08-.12-.01-.69-.07-1.4-.36-.21-.08-.86-.37-1.7-1.08-1.14-.96-1.88-2.08-1.81-2.14Z"/>
  <path class="st0" d="M28.26,18.95l5.06-7.26s.13-.16.4-.16h4.8s1.13-.2.3.94-2.99,4.36-2.99,4.36l-2.05,2.99-.81.77-1.85.66-2.36-.43-1-1.51.5-.36Z"/>
  <path class="st2" d="M15.18,15.76c-.05-.05.58-.87,1.24-1.56.19-.21.3-.31.38-.38.14-.13.51-.46,1.09-.8.42-.25,1-.58,1.83-.74.24-.05.66-.11,1.19-.09.68.02,1.21.17,1.52.28.64.22,1.05.51,1.46.78.26.18.83.59,1.44,1.25.68.74,1.06,1.41,1.24,1.73.94,1.62,1.45,2.34,1.9,2.85.09.1.29.34.6.62.41.37.76.69,1.31.88.5.17.92.16,1.2.15.26-.01.74-.04,1.27-.28.64-.3.94-.74.98-.7.05.04-.37.64-.96,1.24-.32.33-.76.77-1.46,1.2-.85.52-1.61.73-1.87.8-.46.11-1.01.24-1.73.17-.13-.01-.61-.07-1.31-.36-.95-.39-1.67-.93-2.18-1.42-.58-.54-1.08-1.29-2.08-2.79-.59-.89-.82-1.29-1.39-2.01-.86-1.09-1.27-1.36-1.52-1.5-.29-.16-1.05-.57-2.01-.45-.67.09-1.18.4-1.36.51-.5.32-.75.65-.78.62Z"/>
  <text class="st3" transform="translate(40.81 21.74)"><tspan x="0" y="0">RIDE AUTO</tspan></text>
</svg>